<svg width="1576" height="334" viewBox="0 0 1576 334" fill="none" xmlns="http://www.w3.org/2000/svg">
<g clip-path="url(#clip0_321_14)">
<path d="M99.621 14.1263C147.28 -7.43936 204.916 -3.90905 250.197 21.9543C280.358 4.07254 316.62 -2.56599 351.348 0.92595C390.795 4.99349 428.209 24.3335 455.07 53.3434C477.633 77.4417 492.714 108.409 497.856 141.064C504.072 177.979 496.398 216.812 477.864 249.238C462.898 275.446 440.68 297.357 414.433 312.246C365.2 340.604 301.425 340.335 252 312.63C249.276 310.404 246.551 313.819 244.057 314.817C214.51 330.128 180.358 336.114 147.357 332.392C109.483 328.132 73.4123 310.02 47.1651 282.43C22.7215 257.718 6.68163 224.947 1.76989 190.565C-4.25467 150.581 5.26183 108.409 27.8635 74.8323C45.5151 48.4701 70.5343 26.9045 99.621 14.1263ZM68.1552 80.5115C42.2534 109.637 30.6264 150.811 37.687 189.184C41.5627 211.594 51.6931 232.699 66.083 250.274C89.8743 278.785 126.098 296.858 163.359 297.472C182.123 298.125 200.887 294.096 218.232 287.112C210.02 279.782 202.998 271.302 196.666 262.284C181.662 266.697 165.623 268.232 150.158 265.393C124.909 261.325 101.732 246.782 86.5358 226.329C68.3087 202.384 61.7852 169.882 69.9203 140.834C77.0193 113.666 96.0523 89.9896 121.11 77.2882C145.784 64.1263 176.098 62.7832 202.23 72.4916C214.663 77.3266 226.175 84.5407 235.845 93.6735C255.646 112.131 267.464 139.069 267.196 166.198C267.196 175.293 269.076 184.387 272.913 192.637C276.52 201.003 282.583 207.948 288.761 214.51C293.75 200.542 297.357 185.884 297.702 170.995C298.93 146.551 292.407 121.878 280.128 100.696C263.128 71.609 234.694 49.2759 202.154 40.2199C185.039 35.2698 166.927 34.5791 149.314 36.5361C118.078 40.642 88.7231 56.7586 68.1552 80.5115ZM281.586 45.6689C289.682 53.2283 296.513 62.0541 303.151 70.9183C327.518 62.86 355.032 65.124 377.825 76.9428C392.1 84.157 404.494 94.9014 413.896 107.795C425.254 123.336 431.662 142.177 433.044 161.287C434.349 189.951 422.99 219.191 401.808 238.685C372.952 267.848 325.177 275.178 288.723 256.682C279.053 252.307 270.726 245.554 262.745 238.685C245.937 222.031 234.732 199.468 232.622 175.83C232.699 169.805 231.778 163.896 231.509 157.91C228.976 142.791 221.417 128.746 210.903 117.695C205.223 133.658 201.233 150.389 201.501 167.388C201.386 212.361 226.751 256.183 265.469 278.861C301.463 301.041 348.585 303.65 386.843 285.73C421.378 270.151 448.393 238.954 458.677 202.422C470.342 163.474 461.785 119.268 436.843 87.1884C431.739 79.7057 424.717 73.8346 418.462 67.388C400.542 52.1923 378.746 41.2943 355.492 37.3803C330.703 33.0441 304.84 36.2675 281.586 45.6689ZM144.249 105.377C125.293 112.169 109.982 128.478 104.379 147.856C95.2081 175.715 108.639 208.485 134.042 222.837C147.549 230.512 163.819 233.62 179.13 230.512C170.688 211.862 166.85 191.294 166.467 170.918C165.507 147.549 170.035 124.065 179.322 102.614C167.695 100.619 155.339 101.003 144.249 105.377ZM320.649 102.576C337.994 142.906 337.994 190.297 320.765 230.703C346.666 235.538 375.101 223.297 388.339 200.274C399.045 183.006 400.964 160.558 392.944 141.832C388.339 130.32 380.089 120.611 370.266 113.167C356.106 103.113 337.725 99.1608 320.649 102.576Z" fill="#7DD3FC"/>
</g>
<path d="M592.5 256V81H635.75L685.5 180.25L735.25 81H778.75V256H747V123.25L685.25 243.5L623.25 123V256H592.5ZM824.744 109.5C814.494 109.5 806.244 101.25 806.244 91.25C806.244 81 814.494 73 824.744 73C834.744 73 842.994 81 842.994 91.25C842.994 101.25 834.744 109.5 824.744 109.5ZM808.744 256V126.5H840.494V256H808.744ZM868.07 256V126.5H899.82V137.75C909.57 128.75 922.32 124 936.82 124C966.82 124 987.82 145.25 987.82 175.5V256H956.32V180.25C956.32 162.5 945.07 151.5 927.82 151.5C915.82 151.5 906.07 156.5 899.82 165.5V256H868.07ZM1055.8 258.25C1027.8 258.25 1008.55 242 1008.55 218.5C1008.55 194 1028.05 179.5 1061.05 179.5C1072.55 179.5 1083.8 181.25 1093.8 185V174.5C1093.8 158.5 1084.05 150.5 1065.3 150.5C1054.3 150.5 1042.05 153.75 1025.8 161.25L1014.3 137.75C1034.3 128.5 1052.3 124 1070.55 124C1105.3 124 1125.05 141.25 1125.05 171.5V256H1093.8V246.25C1082.8 254.5 1070.55 258.25 1055.8 258.25ZM1038.55 218C1038.55 228.5 1048.55 235.25 1063.8 235.25C1075.55 235.25 1085.55 232.25 1093.8 225.75V206.25C1085.05 202.25 1075.8 200.5 1065.05 200.5C1048.55 200.5 1038.55 207 1038.55 218Z" fill="#09090B"/>
<path d="M1247.8 258C1225.6 258 1204.6 248.8 1189.2 232L1199.4 221.4C1213.8 236.8 1230.2 244.6 1248.4 244.6C1270.4 244.6 1286 233.2 1286 217C1286 202.6 1276.8 195.6 1253.8 191.8L1233.6 188.6C1206.6 184.2 1194.2 173 1194.2 153.2C1194.2 130 1214 114.2 1243.4 114.2C1263 114.2 1282.8 120.8 1298.6 132.8L1289.8 144.8C1274.4 133.2 1258.8 127.4 1242.8 127.4C1222.8 127.4 1209.2 137.4 1209.2 152C1209.2 165 1217.2 171.4 1237.6 174.6L1257.6 177.8C1288.2 182.8 1301.4 194.4 1301.4 216.2C1301.4 240.8 1279.4 258 1247.8 258ZM1322.32 256V116H1368.52C1411.12 116 1442.12 145.4 1442.12 186C1442.12 226.6 1411.32 256 1368.52 256H1322.32ZM1337.72 242H1369.32C1401.72 242 1426.52 217.8 1426.52 186C1426.52 154.2 1401.72 130 1369.32 130H1337.72V242ZM1466.27 256V116H1481.67V182.4L1554.07 116H1574.27L1498.27 184.6L1575.87 256H1554.27L1481.67 188.8V256H1466.27Z" fill="#71717A"/>
<defs>
<clipPath id="clip0_321_14">
<rect width="500" height="333.461" fill="white"/>
</clipPath>
</defs>
</svg>
